<svg width="20" height="21" viewBox="0 0 20 21" fill="none" xmlns="http://www.w3.org/2000/svg">
<path fill-rule="evenodd" clip-rule="evenodd" d="M15.7061 17.8177L11.25 13.4336L12.4226 12.2488L16.8773 16.6329L15.7061 17.8177Z" fill="#C4C9B5"/>
<path d="M12.4173 12.2542L11.266 13.4174L12.5378 14.674C12.9085 14.2833 13.2258 13.8273 13.4978 13.3233L12.4173 12.2542Z" fill="#173036"/>
<path fill-rule="evenodd" clip-rule="evenodd" d="M14.5919 13.6166L12.7448 15.4161C12.4883 15.6659 12.4842 16.0757 12.7353 16.3309L15.6939 19.3342C16.4661 20.1159 17.7242 20.1281 18.5099 19.3614C19.3174 18.5729 19.312 17.2727 18.4964 16.4924L15.4876 13.6125C15.2379 13.3723 14.8416 13.3736 14.5919 13.6166Z" fill="#404864"/>
<path fill-rule="evenodd" clip-rule="evenodd" d="M1.02631 6.47417C1.99667 3.25096 5.47096 1.73096 8.13096 1.73096C12.1766 1.73096 14.3874 5.09939 14.3874 8.56553C14.3874 15.5969 7.23253 17.8172 2.77703 13.6996C0.735884 11.8132 0.133313 8.94146 1.02631 6.47417ZM8.29097 3.54858C10.5805 3.54858 12.9975 5.58158 12.9975 8.41529C12.9975 10.4402 11.9322 12.1678 10.3769 13.0133C6.79269 14.9635 2.61947 12.94 2.61947 8.16558C2.61947 5.00479 6.49683 3.54858 8.29097 3.54858Z" fill="#ABB398"/>
<path fill-rule="evenodd" clip-rule="evenodd" d="M8.2913 3.54883C6.8663 3.54883 4.13301 4.47169 3.06494 6.43276C4.3298 5.23711 5.89051 4.38483 7.39151 4.38483C11.2499 4.38483 12.569 8.52276 12.3777 10.9412C12.7672 10.1961 12.9979 9.33976 12.9979 8.41554C12.9979 5.58183 10.5808 3.54883 8.2913 3.54883Z" fill="#404864"/>
<path fill-rule="evenodd" clip-rule="evenodd" d="M8.40536 6.3355C8.58662 6.46178 8.63119 6.71109 8.50491 6.89236L6.35825 9.97369C6.23197 10.155 5.98265 10.1995 5.80139 10.0732C5.62013 9.94697 5.57555 9.69765 5.70183 9.51639L7.8485 6.43506C7.97478 6.25379 8.22409 6.20922 8.40536 6.3355Z" fill="white"/>
<path fill-rule="evenodd" clip-rule="evenodd" d="M8.6878 10.3767C8.86909 10.503 8.91372 10.7523 8.78748 10.9335L8.02614 12.0269C7.8999 12.2082 7.6506 12.2528 7.46931 12.1266C7.28802 12.0003 7.24339 11.751 7.36963 11.5697L8.13096 10.4764C8.2572 10.2951 8.50651 10.2505 8.6878 10.3767Z" fill="white"/>
<path fill-rule="evenodd" clip-rule="evenodd" d="M10.0732 8.38891C10.2545 8.51514 10.2991 8.76444 10.1729 8.94573L9.77554 9.5164C9.64931 9.6977 9.40001 9.74234 9.21872 9.61611C9.03742 9.48988 8.99278 9.24058 9.11901 9.05928L9.51634 8.48861C9.64257 8.30732 9.89187 8.26268 10.0732 8.38891Z" fill="white"/>
</svg>
